<mxfile host="app.diagrams.net" modified="2023-07-15T02:50:18.633Z" agent="Mozilla/5.0 (Windows NT 10.0; Win64; x64) AppleWebKit/537.36 (KHTML, like Gecko) Chrome/114.0.0.0 Safari/537.36" etag="-xM53nJUps58RB4l2JPj" version="21.6.2" type="device">
  <diagram name="PÃ¡gina-1" id="yon3LEkP6Acv3omnGpDM">
    <mxGraphModel dx="2261" dy="756" grid="1" gridSize="10" guides="1" tooltips="1" connect="1" arrows="1" fold="1" page="1" pageScale="1" pageWidth="827" pageHeight="1169" math="0" shadow="0">
      <root>
        <mxCell id="0" />
        <mxCell id="1" parent="0" />
        <mxCell id="62FnjaV1PTemcjohBADK-13" value="" style="rounded=0;whiteSpace=wrap;html=1;movable=0;resizable=0;rotatable=0;deletable=0;editable=0;locked=1;connectable=0;" vertex="1" parent="1">
          <mxGeometry x="-110" width="1010" height="1400" as="geometry" />
        </mxCell>
        <mxCell id="62FnjaV1PTemcjohBADK-1" value="" style="rounded=0;whiteSpace=wrap;html=1;strokeWidth=4;strokeColor=#FF3399;" vertex="1" parent="1">
          <mxGeometry x="30" y="20" width="670" height="70" as="geometry" />
        </mxCell>
        <mxCell id="62FnjaV1PTemcjohBADK-2" value="LOGO" style="rounded=0;whiteSpace=wrap;html=1;" vertex="1" parent="1">
          <mxGeometry x="50" y="30" width="120" height="50" as="geometry" />
        </mxCell>
        <mxCell id="62FnjaV1PTemcjohBADK-3" value="" style="rounded=0;whiteSpace=wrap;html=1;" vertex="1" parent="1">
          <mxGeometry x="480" y="30" width="210" height="50" as="geometry" />
        </mxCell>
        <mxCell id="62FnjaV1PTemcjohBADK-4" value="" style="rounded=0;whiteSpace=wrap;html=1;strokeColor=#CC6600;strokeWidth=3;" vertex="1" parent="1">
          <mxGeometry x="490" y="40" width="50" height="30" as="geometry" />
        </mxCell>
        <mxCell id="62FnjaV1PTemcjohBADK-5" value="" style="rounded=0;whiteSpace=wrap;html=1;strokeColor=#CC6600;strokeWidth=3;" vertex="1" parent="1">
          <mxGeometry x="560" y="40" width="50" height="30" as="geometry" />
        </mxCell>
        <mxCell id="62FnjaV1PTemcjohBADK-6" value="" style="rounded=0;whiteSpace=wrap;html=1;strokeColor=#CC6600;strokeWidth=3;" vertex="1" parent="1">
          <mxGeometry x="630" y="40" width="50" height="30" as="geometry" />
        </mxCell>
        <mxCell id="62FnjaV1PTemcjohBADK-8" value="NAV" style="text;html=1;strokeColor=none;fillColor=none;align=center;verticalAlign=middle;whiteSpace=wrap;rounded=0;fontColor=#000000;" vertex="1" parent="1">
          <mxGeometry x="730" y="40" width="60" height="30" as="geometry" />
        </mxCell>
        <mxCell id="62FnjaV1PTemcjohBADK-10" value="UL" style="text;html=1;strokeColor=none;fillColor=none;align=center;verticalAlign=middle;whiteSpace=wrap;rounded=0;fontColor=#000000;" vertex="1" parent="1">
          <mxGeometry x="414" y="40" width="60" height="30" as="geometry" />
        </mxCell>
        <mxCell id="62FnjaV1PTemcjohBADK-11" value="IMG" style="text;html=1;strokeColor=none;fillColor=none;align=center;verticalAlign=middle;whiteSpace=wrap;rounded=0;fontColor=#000000;" vertex="1" parent="1">
          <mxGeometry x="170" y="40" width="60" height="30" as="geometry" />
        </mxCell>
        <mxCell id="62FnjaV1PTemcjohBADK-12" value="li &amp;gt; a" style="text;html=1;strokeColor=none;fillColor=none;align=center;verticalAlign=middle;whiteSpace=wrap;rounded=0;fontColor=#000000;" vertex="1" parent="1">
          <mxGeometry x="485" y="40" width="60" height="30" as="geometry" />
        </mxCell>
        <mxCell id="62FnjaV1PTemcjohBADK-15" value="&lt;font color=&quot;#9933ff&quot;&gt;CONTENIDO&lt;/font&gt;" style="rounded=0;whiteSpace=wrap;html=1;fontSize=20;" vertex="1" parent="1">
          <mxGeometry x="320" y="210" width="120" height="30" as="geometry" />
        </mxCell>
        <mxCell id="62FnjaV1PTemcjohBADK-16" value="&lt;b&gt;&lt;font style=&quot;font-size: 24px;&quot;&gt;MARGIN&lt;/font&gt;&lt;/b&gt;" style="text;html=1;strokeColor=none;fillColor=none;align=center;verticalAlign=middle;whiteSpace=wrap;rounded=0;" vertex="1" parent="1">
          <mxGeometry x="320" y="120" width="120" height="30" as="geometry" />
        </mxCell>
        <mxCell id="62FnjaV1PTemcjohBADK-17" value="CONTENIDO" style="rounded=0;whiteSpace=wrap;html=1;fontSize=20;" vertex="1" parent="1">
          <mxGeometry x="490" y="210" width="120" height="30" as="geometry" />
        </mxCell>
        <mxCell id="62FnjaV1PTemcjohBADK-18" value="CONTENIDO" style="rounded=0;whiteSpace=wrap;html=1;fontSize=20;" vertex="1" parent="1">
          <mxGeometry x="320" y="270" width="120" height="30" as="geometry" />
        </mxCell>
        <mxCell id="62FnjaV1PTemcjohBADK-19" value="CONTENIDO" style="rounded=0;whiteSpace=wrap;html=1;fontSize=20;" vertex="1" parent="1">
          <mxGeometry x="150" y="210" width="120" height="30" as="geometry" />
        </mxCell>
        <mxCell id="62FnjaV1PTemcjohBADK-20" value="CONTENIDO" style="rounded=0;whiteSpace=wrap;html=1;fontSize=20;" vertex="1" parent="1">
          <mxGeometry x="320" y="150" width="120" height="30" as="geometry" />
        </mxCell>
        <mxCell id="62FnjaV1PTemcjohBADK-21" value="20PX" style="text;html=1;strokeColor=none;fillColor=none;align=center;verticalAlign=middle;whiteSpace=wrap;rounded=0;" vertex="1" parent="1">
          <mxGeometry x="440" y="210" width="60" height="30" as="geometry" />
        </mxCell>
        <mxCell id="62FnjaV1PTemcjohBADK-24" value="20PX" style="text;html=1;strokeColor=none;fillColor=none;align=center;verticalAlign=middle;whiteSpace=wrap;rounded=0;" vertex="1" parent="1">
          <mxGeometry x="350" y="180" width="60" height="30" as="geometry" />
        </mxCell>
        <mxCell id="62FnjaV1PTemcjohBADK-25" value="20PX" style="text;html=1;strokeColor=none;fillColor=none;align=center;verticalAlign=middle;whiteSpace=wrap;rounded=0;" vertex="1" parent="1">
          <mxGeometry x="350" y="240" width="60" height="30" as="geometry" />
        </mxCell>
        <mxCell id="62FnjaV1PTemcjohBADK-26" value="20PX" style="text;html=1;strokeColor=none;fillColor=none;align=center;verticalAlign=middle;whiteSpace=wrap;rounded=0;" vertex="1" parent="1">
          <mxGeometry x="270" y="210" width="60" height="30" as="geometry" />
        </mxCell>
        <mxCell id="62FnjaV1PTemcjohBADK-27" value="&lt;font color=&quot;#9933ff&quot;&gt;CONTENIDO&lt;/font&gt;" style="rounded=0;whiteSpace=wrap;html=1;fontSize=20;" vertex="1" parent="1">
          <mxGeometry x="290" y="380" width="230" height="70" as="geometry" />
        </mxCell>
        <mxCell id="62FnjaV1PTemcjohBADK-28" value="&lt;b&gt;&lt;font style=&quot;font-size: 24px;&quot;&gt;PADDING&lt;/font&gt;&lt;/b&gt;" style="text;html=1;strokeColor=none;fillColor=none;align=center;verticalAlign=middle;whiteSpace=wrap;rounded=0;" vertex="1" parent="1">
          <mxGeometry x="321" y="330" width="120" height="30" as="geometry" />
        </mxCell>
        <mxCell id="62FnjaV1PTemcjohBADK-29" value="20PX" style="text;html=1;strokeColor=none;fillColor=none;align=center;verticalAlign=middle;whiteSpace=wrap;rounded=0;" vertex="1" parent="1">
          <mxGeometry x="460" y="400" width="60" height="30" as="geometry" />
        </mxCell>
        <mxCell id="62FnjaV1PTemcjohBADK-30" value="20PX" style="text;html=1;strokeColor=none;fillColor=none;align=center;verticalAlign=middle;whiteSpace=wrap;rounded=0;" vertex="1" parent="1">
          <mxGeometry x="375" y="420" width="60" height="30" as="geometry" />
        </mxCell>
        <mxCell id="62FnjaV1PTemcjohBADK-31" value="20PX" style="text;html=1;strokeColor=none;fillColor=none;align=center;verticalAlign=middle;whiteSpace=wrap;rounded=0;" vertex="1" parent="1">
          <mxGeometry x="290" y="400" width="60" height="30" as="geometry" />
        </mxCell>
        <mxCell id="62FnjaV1PTemcjohBADK-32" value="20PX" style="text;html=1;strokeColor=none;fillColor=none;align=center;verticalAlign=middle;whiteSpace=wrap;rounded=0;" vertex="1" parent="1">
          <mxGeometry x="375" y="380" width="60" height="30" as="geometry" />
        </mxCell>
        <mxCell id="62FnjaV1PTemcjohBADK-33" value="CONTENIDO" style="rounded=0;whiteSpace=wrap;html=1;fontSize=20;" vertex="1" parent="1">
          <mxGeometry x="570" y="400" width="120" height="30" as="geometry" />
        </mxCell>
        <mxCell id="62FnjaV1PTemcjohBADK-34" value="20PX" style="text;html=1;strokeColor=none;fillColor=none;align=center;verticalAlign=middle;whiteSpace=wrap;rounded=0;" vertex="1" parent="1">
          <mxGeometry x="520" y="400" width="60" height="30" as="geometry" />
        </mxCell>
        <mxCell id="62FnjaV1PTemcjohBADK-35" value="" style="rounded=0;whiteSpace=wrap;html=1;strokeWidth=4;strokeColor=#FF3399;" vertex="1" parent="1">
          <mxGeometry x="30" y="600" width="670" height="70" as="geometry" />
        </mxCell>
        <mxCell id="62FnjaV1PTemcjohBADK-36" value="LOGO" style="rounded=0;whiteSpace=wrap;html=1;" vertex="1" parent="1">
          <mxGeometry x="50" y="610" width="120" height="50" as="geometry" />
        </mxCell>
        <mxCell id="62FnjaV1PTemcjohBADK-37" value="" style="rounded=0;whiteSpace=wrap;html=1;strokeColor=#CC6600;strokeWidth=3;" vertex="1" parent="1">
          <mxGeometry x="560" y="620" width="50" height="30" as="geometry" />
        </mxCell>
        <mxCell id="62FnjaV1PTemcjohBADK-38" value="" style="rounded=0;whiteSpace=wrap;html=1;strokeColor=#CC6600;strokeWidth=3;" vertex="1" parent="1">
          <mxGeometry x="630" y="620" width="50" height="30" as="geometry" />
        </mxCell>
        <mxCell id="62FnjaV1PTemcjohBADK-39" value="li &amp;gt; a" style="text;html=1;strokeColor=none;fillColor=none;align=center;verticalAlign=middle;whiteSpace=wrap;rounded=0;fontColor=#000000;" vertex="1" parent="1">
          <mxGeometry x="485" y="620" width="60" height="30" as="geometry" />
        </mxCell>
      </root>
    </mxGraphModel>
  </diagram>
</mxfile>
